<svg xmlns="http://www.w3.org/2000/svg" fill="none" viewBox="0 0 484 365">
  <path d="M379.256 125.506l.417-1.187-1.18-.438c-7.414-2.746-11.287-10.902-8.682-18.337 2.606-7.437 10.724-11.39 18.23-8.908l1.195.394.415-1.187L399.057 69l25.811 9.045c-2.465 8.6 2.221 17.736 10.802 20.744 8.582 3.007 17.946-1.207 21.388-9.463l25.269 8.853-9.006 25.699c-8.466-2.132-17.308 2.476-20.24 10.844-2.933 8.369 1.099 17.489 9.044 21.107l-8.816 25.159-26.452-9.269-1.231-.431-.409 1.238-.045.133-.039.116c-2.635 7.518-10.905 11.476-18.48 8.822-7.575-2.655-11.565-10.909-8.93-18.427a9.04 9.04 0 01.088-.248l.453-1.223-1.231-.43-26.994-9.461 9.217-26.302z" fill="#F6704A" fill-opacity=".52"/>
  <path d="M457.464 88.252l-1.213-.413m-76.995 37.667l.417-1.187-1.18-.438c-7.414-2.746-11.287-10.902-8.682-18.337 2.606-7.437 10.724-11.39 18.23-8.908l1.195.394.415-1.187L399.057 69l25.811 9.045c-2.465 8.6 2.221 17.736 10.802 20.744 8.582 3.007 17.946-1.207 21.388-9.463l25.269 8.853-9.006 25.699c-8.466-2.132-17.308 2.476-20.24 10.844-2.933 8.369 1.099 17.489 9.044 21.107l-8.816 25.159-26.452-9.269-1.231-.431-.409 1.238-.045.133-.039.116c-2.635 7.518-10.905 11.476-18.48 8.822-7.575-2.655-11.565-10.909-8.93-18.427a9.04 9.04 0 01.088-.248l.453-1.223-1.231-.43-26.994-9.461 9.217-26.302z" stroke="#fff" stroke-width="2"/>
  <path d="M20.984 333.693l-.361-1.205-1.212.341c-7.61 2.135-15.54-2.186-17.802-9.732-2.264-7.547 1.98-15.518 9.511-17.922l1.198-.383-.361-1.205-8.17-27.244 26.198-7.856c3.06 8.407 12.221 13.043 20.933 10.432 8.71-2.612 13.807-11.525 11.739-20.229L88.303 251l7.821 26.083c-8.101 3.252-12.546 12.177-10 20.672 2.548 8.493 11.17 13.5 19.726 11.758l7.655 25.535-26.846 8.05-1.25.376.396 1.242c.027.084.052.167.077.251 2.29 7.63-2.075 15.695-9.762 18-7.69 2.306-15.769-2.028-18.058-9.659-.025-.084-.05-.168-.073-.252l-.352-1.255-1.249.374-27.397 8.216-8.007-26.698z" fill="#8CD878"/>
  <path d="M62.356 257.584l-1.225.379m-40.147 75.73l-.361-1.205-1.212.341c-7.61 2.135-15.54-2.186-17.802-9.732-2.264-7.547 1.98-15.518 9.511-17.922l1.198-.383-.361-1.205-8.17-27.244 26.198-7.856c3.06 8.407 12.221 13.043 20.933 10.432 8.71-2.612 13.807-11.525 11.739-20.229L88.303 251l7.821 26.083c-8.101 3.252-12.546 12.177-10 20.672 2.548 8.493 11.17 13.5 19.726 11.758l7.655 25.535-26.846 8.05-1.25.376.396 1.242c.027.084.052.167.077.251 2.29 7.63-2.075 15.695-9.762 18-7.69 2.306-15.769-2.028-18.058-9.659-.025-.084-.05-.168-.073-.252l-.352-1.255-1.249.374-27.397 8.216-8.007-26.698z" stroke="#fff" stroke-width="2"/>
  <path d="M25.515 62.02v-1.258l-1.258-.022C16.353 60.6 10 54.184 10 46.305c0-7.88 6.353-14.294 14.257-14.435l1.258-.022V2.146h27.349c.519 8.932 7.962 16.005 17.056 16.005 9.094 0 16.537-7.073 17.054-16.005h26.775v27.231c-8.696.787-15.516 8.06-15.516 16.928 0 8.867 6.82 16.14 15.516 16.928V89.89H84.416l.023 1.304.003.264c-.001 7.966-6.495 14.436-14.522 14.436-8.028 0-14.523-6.47-14.523-14.437 0-.087 0-.174.003-.263l.023-1.304H25.515V62.02z" fill="url(#ng312_0cYx85a)" fill-opacity=".52"/>
  <path d="M87.002 1l-1.28.01M25.515 62.02v-1.258l-1.258-.022C16.353 60.6 10 54.184 10 46.305c0-7.88 6.353-14.294 14.257-14.435l1.258-.022V2.146h27.349c.519 8.932 7.962 16.005 17.056 16.005 9.094 0 16.537-7.073 17.054-16.005h26.775v27.231c-8.696.787-15.516 8.06-15.516 16.928 0 8.867 6.82 16.14 15.516 16.928V89.89H84.416l.023 1.304.003.264c-.001 7.966-6.495 14.436-14.522 14.436-8.028 0-14.523-6.47-14.523-14.437 0-.087 0-.174.003-.263l.023-1.304H25.515V62.02z" stroke="#fff" stroke-width="2"/>
  <defs>
    <linearGradient id="ng312_0cYx85a" x1="22.806" y1="-8.404" x2="115.668" y2="102.39" gradientUnits="userSpaceOnUse">
      <stop stop-color="#2EB5F3"/>
      <stop offset="1" stop-color="#2EB5F3" stop-opacity="0"/>
    </linearGradient>
  </defs>
</svg>
